<svg width="18" height="18" viewBox="0 0 18 18" fill="none" xmlns="http://www.w3.org/2000/svg">
<path d="M13.95 11.6125V3.04167C13.95 1.7125 12.8958 0.658335 11.5667 0.658335H3.04166C1.71249 0.658335 0.658325 1.7125 0.658325 3.04167V11.6125C0.658325 12.9417 1.71249 13.9958 3.04166 13.9958H11.6125C12.8958 13.95 13.95 12.8958 13.95 11.6125ZM15.9667 4.875V12.2542C15.9667 14.3167 14.2708 16.0125 12.2083 16.0125H4.82916C4.55416 16.0125 4.41666 16.3333 4.59999 16.5167C5.05832 17.0208 5.69999 17.3417 6.47916 17.3417H12.6208C15.2333 17.3417 17.3417 15.2333 17.3417 12.6208V6.47917C17.3417 5.74583 17.0208 5.05833 16.5167 4.6C16.2875 4.41667 15.9667 4.6 15.9667 4.875Z" fill="#262626"/>
</svg>
